# xmcd
#
# Track frame offsets:
#	150
#	22550
#	41110
#	59960
#	84360
#	102963
#	114680
#	142336
#	161421
#	179585
#	195026
#	214848
#	233091
#	248342
#	263082
#	284969
#	299209
#	316149
#	340099
#
# Disc length: 4806 seconds
#
# Revision: 1
# Processed by: cddbd v1.5.2PL0 Copyright (c) Steve Scherf et al.
# Submitted via: audiograbber 1.83.01
#
DISCID=1e12c413
DTITLE=Various Artist - The Alligator Records 40th Anniversary Collection CD2
DYEAR=2011
DGENRE=Blues
TTITLE0=Robert Cray - T-Bone Shuffle
TTITLE1=Lonnie Brooks - Don't Take Advantage Of Me
TTITLE2=Eddy Clearwater - A Good Leavin' Alone
TTITLE3=Hound Dog Taylor - Sitting At Home Alone
TTITLE4=Elvin Bishop - Roll Your Moneymaker
TTITLE5=James Cotton - With The Quickness
TTITLE6=Shemekia Copeland - It's My Own Tears
TTITLE7=Professor Longhair - Red Beans
TTITLE8=Charlie Musselwhite - Where Hwy 61 Runs
TTITLE9=Delbert McClinton - You Can't Judge A Book By The Cover
TTITLE10=Mavis Staples - Step Into The Light
TTITLE11=Tinsley Ellis - Speak No Evil
TTITLE12=Eric Lindell - It's A Drag
TTITLE13=Saffire - Going Down To The River
TTITLE14=The Holmes Brothers - Feed My Soul
TTITLE15=Katie Webster - Two-Fisted Mama
TTITLE16=William Clarke - Daddy Pinocchio
TTITLE17=Buckwheat Zydeco - When The Levee Breaks
TTITLE18=JJ Grey and Mofor - The Sun Is Shining Down
EXTD=
EXTT0=
EXTT1=
EXTT2=
EXTT3=
EXTT4=
EXTT5=
EXTT6=
EXTT7=
EXTT8=
EXTT9=
EXTT10=
EXTT11=
EXTT12=
EXTT13=
EXTT14=
EXTT15=
EXTT16=
EXTT17=
EXTT18=
PLAYORDER=
